<mxfile host="app.diagrams.net" agent="Mozilla/5.0 (Windows NT 10.0; Win64; x64) AppleWebKit/537.36 (KHTML, like Gecko) Chrome/138.0.0.0 Safari/537.36" version="24.8.3">
  <diagram name="Página-1" id="DI-ENJPCS5pUVEPgq271">
    <mxGraphModel dx="1366" dy="735" grid="1" gridSize="10" guides="1" tooltips="1" connect="1" arrows="1" fold="1" page="1" pageScale="1" pageWidth="1600" pageHeight="900" math="0" shadow="0">
      <root>
        <mxCell id="0" />
        <mxCell id="1" parent="0" />
        <mxCell id="Wcygocvn48Qtb0r2ZFJX-1" value="AWS Cloud" style="points=[[0,0],[0.25,0],[0.5,0],[0.75,0],[1,0],[1,0.25],[1,0.5],[1,0.75],[1,1],[0.75,1],[0.5,1],[0.25,1],[0,1],[0,0.75],[0,0.5],[0,0.25]];outlineConnect=0;gradientColor=none;html=1;whiteSpace=wrap;fontSize=12;fontStyle=0;container=1;pointerEvents=0;collapsible=0;recursiveResize=0;shape=mxgraph.aws4.group;grIcon=mxgraph.aws4.group_aws_cloud_alt;strokeColor=#232F3E;fillColor=none;verticalAlign=top;align=left;spacingLeft=30;fontColor=#232F3E;dashed=0;" vertex="1" parent="1">
          <mxGeometry x="200" y="28" width="1360" height="852" as="geometry" />
        </mxCell>
        <mxCell id="Wcygocvn48Qtb0r2ZFJX-2" value="Region" style="points=[[0,0],[0.25,0],[0.5,0],[0.75,0],[1,0],[1,0.25],[1,0.5],[1,0.75],[1,1],[0.75,1],[0.5,1],[0.25,1],[0,1],[0,0.75],[0,0.5],[0,0.25]];outlineConnect=0;gradientColor=none;html=1;whiteSpace=wrap;fontSize=12;fontStyle=0;container=1;pointerEvents=0;collapsible=0;recursiveResize=0;shape=mxgraph.aws4.group;grIcon=mxgraph.aws4.group_region;strokeColor=#00A4A6;fillColor=none;verticalAlign=top;align=left;spacingLeft=30;fontColor=#147EBA;dashed=1;" vertex="1" parent="Wcygocvn48Qtb0r2ZFJX-1">
          <mxGeometry x="40" y="40" width="1280" height="770" as="geometry" />
        </mxCell>
        <mxCell id="Wcygocvn48Qtb0r2ZFJX-5" value="" style="whiteSpace=wrap;html=1;aspect=fixed;fillColor=#e8e8e8;strokeColor=none;rounded=1;arcSize=5;" vertex="1" parent="Wcygocvn48Qtb0r2ZFJX-2">
          <mxGeometry x="40" y="360" width="372" height="372" as="geometry" />
        </mxCell>
        <mxCell id="Wcygocvn48Qtb0r2ZFJX-6" value="" style="sketch=0;points=[[0,0,0],[0.25,0,0],[0.5,0,0],[0.75,0,0],[1,0,0],[0,1,0],[0.25,1,0],[0.5,1,0],[0.75,1,0],[1,1,0],[0,0.25,0],[0,0.5,0],[0,0.75,0],[1,0.25,0],[1,0.5,0],[1,0.75,0]];outlineConnect=0;fontColor=#232F3E;fillColor=#7AA116;strokeColor=#ffffff;dashed=0;verticalLabelPosition=bottom;verticalAlign=top;align=center;html=1;fontSize=12;fontStyle=0;aspect=fixed;shape=mxgraph.aws4.resourceIcon;resIcon=mxgraph.aws4.s3;" vertex="1" parent="Wcygocvn48Qtb0r2ZFJX-2">
          <mxGeometry x="184" y="613" width="78" height="78" as="geometry" />
        </mxCell>
        <mxCell id="Wcygocvn48Qtb0r2ZFJX-7" value="" style="sketch=0;points=[[0,0,0],[0.25,0,0],[0.5,0,0],[0.75,0,0],[1,0,0],[0,1,0],[0.25,1,0],[0.5,1,0],[0.75,1,0],[1,1,0],[0,0.25,0],[0,0.5,0],[0,0.75,0],[1,0.25,0],[1,0.5,0],[1,0.75,0]];outlineConnect=0;fontColor=#232F3E;fillColor=#8C4FFF;strokeColor=#ffffff;dashed=0;verticalLabelPosition=bottom;verticalAlign=top;align=center;html=1;fontSize=12;fontStyle=0;aspect=fixed;shape=mxgraph.aws4.resourceIcon;resIcon=mxgraph.aws4.cloudfront;" vertex="1" parent="Wcygocvn48Qtb0r2ZFJX-2">
          <mxGeometry x="184" y="457" width="78" height="78" as="geometry" />
        </mxCell>
        <mxCell id="Wcygocvn48Qtb0r2ZFJX-8" value="&lt;b&gt;Aplicação Frontend&lt;/b&gt;" style="text;html=1;align=center;verticalAlign=middle;resizable=0;points=[];autosize=1;strokeColor=none;fillColor=none;fontSize=18;" vertex="1" parent="Wcygocvn48Qtb0r2ZFJX-2">
          <mxGeometry x="131" y="382" width="190" height="40" as="geometry" />
        </mxCell>
        <mxCell id="Wcygocvn48Qtb0r2ZFJX-12" value="&lt;span style=&quot;font-size: 14px;&quot;&gt;S3&lt;/span&gt;" style="text;html=1;align=center;verticalAlign=middle;resizable=0;points=[];autosize=1;strokeColor=none;fillColor=none;fontSize=18;" vertex="1" parent="Wcygocvn48Qtb0r2ZFJX-2">
          <mxGeometry x="203" y="691" width="40" height="40" as="geometry" />
        </mxCell>
        <mxCell id="Wcygocvn48Qtb0r2ZFJX-13" value="" style="shape=image;verticalLabelPosition=bottom;labelBackgroundColor=default;verticalAlign=top;aspect=fixed;imageAspect=0;image=https://www.pngmart.com/files/23/React-Logo-PNG-File.png;" vertex="1" parent="Wcygocvn48Qtb0r2ZFJX-2">
          <mxGeometry x="32" y="601.33" width="152" height="101.34" as="geometry" />
        </mxCell>
        <mxCell id="Wcygocvn48Qtb0r2ZFJX-14" value="" style="whiteSpace=wrap;html=1;fillColor=#e8e8e8;strokeColor=none;rounded=1;arcSize=5;" vertex="1" parent="Wcygocvn48Qtb0r2ZFJX-2">
          <mxGeometry x="440" y="360" width="800" height="380" as="geometry" />
        </mxCell>
        <mxCell id="Wcygocvn48Qtb0r2ZFJX-16" value="" style="whiteSpace=wrap;html=1;fillColor=#e8e8e8;strokeColor=none;rounded=1;arcSize=5;" vertex="1" parent="Wcygocvn48Qtb0r2ZFJX-2">
          <mxGeometry x="890" y="30" width="350" height="710" as="geometry" />
        </mxCell>
        <mxCell id="Wcygocvn48Qtb0r2ZFJX-17" value="&lt;b&gt;Transacional&lt;/b&gt;" style="text;html=1;align=center;verticalAlign=middle;resizable=0;points=[];autosize=1;strokeColor=none;fillColor=none;fontSize=18;" vertex="1" parent="Wcygocvn48Qtb0r2ZFJX-2">
          <mxGeometry x="1000" y="62" width="130" height="40" as="geometry" />
        </mxCell>
        <mxCell id="Wcygocvn48Qtb0r2ZFJX-18" value="" style="sketch=0;points=[[0,0,0],[0.25,0,0],[0.5,0,0],[0.75,0,0],[1,0,0],[0,1,0],[0.25,1,0],[0.5,1,0],[0.75,1,0],[1,1,0],[0,0.25,0],[0,0.5,0],[0,0.75,0],[1,0.25,0],[1,0.5,0],[1,0.75,0]];outlineConnect=0;fontColor=#232F3E;fillColor=#E7157B;strokeColor=#ffffff;dashed=0;verticalLabelPosition=bottom;verticalAlign=top;align=center;html=1;fontSize=12;fontStyle=0;aspect=fixed;shape=mxgraph.aws4.resourceIcon;resIcon=mxgraph.aws4.api_gateway;rounded=1;arcSize=5;fontFamily=Helvetica;" vertex="1" parent="Wcygocvn48Qtb0r2ZFJX-2">
          <mxGeometry x="490" y="457" width="78" height="78" as="geometry" />
        </mxCell>
        <mxCell id="Wcygocvn48Qtb0r2ZFJX-19" value="&lt;span style=&quot;font-size: 14px;&quot;&gt;API Gateway&lt;/span&gt;" style="text;html=1;align=center;verticalAlign=middle;resizable=0;points=[];autosize=1;strokeColor=none;fillColor=none;fontSize=18;" vertex="1" parent="Wcygocvn48Qtb0r2ZFJX-2">
          <mxGeometry x="474" y="535" width="110" height="40" as="geometry" />
        </mxCell>
        <mxCell id="Wcygocvn48Qtb0r2ZFJX-20" value="" style="sketch=0;points=[[0,0,0],[0.25,0,0],[0.5,0,0],[0.75,0,0],[1,0,0],[0,1,0],[0.25,1,0],[0.5,1,0],[0.75,1,0],[1,1,0],[0,0.25,0],[0,0.5,0],[0,0.75,0],[1,0.25,0],[1,0.5,0],[1,0.75,0]];outlineConnect=0;fontColor=#232F3E;fillColor=#ED7100;strokeColor=#ffffff;dashed=0;verticalLabelPosition=bottom;verticalAlign=top;align=center;html=1;fontSize=12;fontStyle=0;aspect=fixed;shape=mxgraph.aws4.resourceIcon;resIcon=mxgraph.aws4.lambda;rounded=1;arcSize=5;fontFamily=Helvetica;" vertex="1" parent="Wcygocvn48Qtb0r2ZFJX-2">
          <mxGeometry x="645" y="622" width="78" height="78" as="geometry" />
        </mxCell>
        <mxCell id="Wcygocvn48Qtb0r2ZFJX-21" value="" style="sketch=0;points=[[0,0,0],[0.25,0,0],[0.5,0,0],[0.75,0,0],[1,0,0],[0,1,0],[0.25,1,0],[0.5,1,0],[0.75,1,0],[1,1,0],[0,0.25,0],[0,0.5,0],[0,0.75,0],[1,0.25,0],[1,0.5,0],[1,0.75,0]];outlineConnect=0;fontColor=#232F3E;fillColor=#ED7100;strokeColor=#ffffff;dashed=0;verticalLabelPosition=bottom;verticalAlign=top;align=center;html=1;fontSize=12;fontStyle=0;aspect=fixed;shape=mxgraph.aws4.resourceIcon;resIcon=mxgraph.aws4.lambda;rounded=1;arcSize=5;fontFamily=Helvetica;" vertex="1" parent="Wcygocvn48Qtb0r2ZFJX-2">
          <mxGeometry x="791" y="622" width="78" height="78" as="geometry" />
        </mxCell>
        <mxCell id="Wcygocvn48Qtb0r2ZFJX-23" value="" style="sketch=0;points=[[0,0,0],[0.25,0,0],[0.5,0,0],[0.75,0,0],[1,0,0],[0,1,0],[0.25,1,0],[0.5,1,0],[0.75,1,0],[1,1,0],[0,0.25,0],[0,0.5,0],[0,0.75,0],[1,0.25,0],[1,0.5,0],[1,0.75,0]];outlineConnect=0;fontColor=#232F3E;fillColor=#ED7100;strokeColor=#ffffff;dashed=0;verticalLabelPosition=bottom;verticalAlign=top;align=center;html=1;fontSize=12;fontStyle=0;aspect=fixed;shape=mxgraph.aws4.resourceIcon;resIcon=mxgraph.aws4.lambda;rounded=1;arcSize=5;fontFamily=Helvetica;" vertex="1" parent="Wcygocvn48Qtb0r2ZFJX-2">
          <mxGeometry x="1014" y="622" width="78" height="78" as="geometry" />
        </mxCell>
        <mxCell id="Wcygocvn48Qtb0r2ZFJX-24" value="" style="sketch=0;points=[[0,0,0],[0.25,0,0],[0.5,0,0],[0.75,0,0],[1,0,0],[0,1,0],[0.25,1,0],[0.5,1,0],[0.75,1,0],[1,1,0],[0,0.25,0],[0,0.5,0],[0,0.75,0],[1,0.25,0],[1,0.5,0],[1,0.75,0]];outlineConnect=0;fontColor=#232F3E;fillColor=#ED7100;strokeColor=#ffffff;dashed=0;verticalLabelPosition=bottom;verticalAlign=top;align=center;html=1;fontSize=12;fontStyle=0;aspect=fixed;shape=mxgraph.aws4.resourceIcon;resIcon=mxgraph.aws4.lambda;rounded=1;arcSize=5;fontFamily=Helvetica;" vertex="1" parent="Wcygocvn48Qtb0r2ZFJX-2">
          <mxGeometry x="1140" y="622" width="78" height="78" as="geometry" />
        </mxCell>
        <mxCell id="Wcygocvn48Qtb0r2ZFJX-25" value="" style="sketch=0;points=[[0,0,0],[0.25,0,0],[0.5,0,0],[0.75,0,0],[1,0,0],[0,1,0],[0.25,1,0],[0.5,1,0],[0.75,1,0],[1,1,0],[0,0.25,0],[0,0.5,0],[0,0.75,0],[1,0.25,0],[1,0.5,0],[1,0.75,0]];outlineConnect=0;fontColor=#232F3E;fillColor=#ED7100;strokeColor=#ffffff;dashed=0;verticalLabelPosition=bottom;verticalAlign=top;align=center;html=1;fontSize=12;fontStyle=0;aspect=fixed;shape=mxgraph.aws4.resourceIcon;resIcon=mxgraph.aws4.lambda;rounded=1;arcSize=5;fontFamily=Helvetica;" vertex="1" parent="Wcygocvn48Qtb0r2ZFJX-2">
          <mxGeometry x="1016" y="300" width="78" height="78" as="geometry" />
        </mxCell>
        <mxCell id="Wcygocvn48Qtb0r2ZFJX-26" value="" style="sketch=0;points=[[0,0,0],[0.25,0,0],[0.5,0,0],[0.75,0,0],[1,0,0],[0,1,0],[0.25,1,0],[0.5,1,0],[0.75,1,0],[1,1,0],[0,0.25,0],[0,0.5,0],[0,0.75,0],[1,0.25,0],[1,0.5,0],[1,0.75,0]];outlineConnect=0;fontColor=#232F3E;fillColor=#ED7100;strokeColor=#ffffff;dashed=0;verticalLabelPosition=bottom;verticalAlign=top;align=center;html=1;fontSize=12;fontStyle=0;aspect=fixed;shape=mxgraph.aws4.resourceIcon;resIcon=mxgraph.aws4.lambda;rounded=1;arcSize=5;fontFamily=Helvetica;" vertex="1" parent="Wcygocvn48Qtb0r2ZFJX-2">
          <mxGeometry x="1016" y="132" width="78" height="78" as="geometry" />
        </mxCell>
        <mxCell id="Wcygocvn48Qtb0r2ZFJX-27" value="&lt;span style=&quot;font-size: 14px;&quot;&gt;Lambda&lt;/span&gt;" style="text;html=1;align=center;verticalAlign=middle;resizable=0;points=[];autosize=1;strokeColor=none;fillColor=none;fontSize=18;" vertex="1" parent="Wcygocvn48Qtb0r2ZFJX-2">
          <mxGeometry x="649" y="700" width="70" height="40" as="geometry" />
        </mxCell>
        <mxCell id="Wcygocvn48Qtb0r2ZFJX-28" value="&lt;span style=&quot;font-size: 14px;&quot;&gt;Lambda&lt;/span&gt;" style="text;html=1;align=center;verticalAlign=middle;resizable=0;points=[];autosize=1;strokeColor=none;fillColor=none;fontSize=18;" vertex="1" parent="Wcygocvn48Qtb0r2ZFJX-2">
          <mxGeometry x="795" y="700" width="70" height="40" as="geometry" />
        </mxCell>
        <mxCell id="Wcygocvn48Qtb0r2ZFJX-30" value="&lt;span style=&quot;font-size: 14px;&quot;&gt;Lambda&lt;/span&gt;" style="text;html=1;align=center;verticalAlign=middle;resizable=0;points=[];autosize=1;strokeColor=none;fillColor=none;fontSize=18;" vertex="1" parent="Wcygocvn48Qtb0r2ZFJX-2">
          <mxGeometry x="1018" y="700" width="70" height="40" as="geometry" />
        </mxCell>
        <mxCell id="Wcygocvn48Qtb0r2ZFJX-31" value="&lt;span style=&quot;font-size: 14px;&quot;&gt;Lambda&lt;/span&gt;" style="text;html=1;align=center;verticalAlign=middle;resizable=0;points=[];autosize=1;strokeColor=none;fillColor=none;fontSize=18;" vertex="1" parent="Wcygocvn48Qtb0r2ZFJX-2">
          <mxGeometry x="1144" y="700" width="70" height="40" as="geometry" />
        </mxCell>
        <mxCell id="Wcygocvn48Qtb0r2ZFJX-32" value="&lt;span style=&quot;font-size: 14px;&quot;&gt;Lambda&lt;/span&gt;" style="text;html=1;align=center;verticalAlign=middle;resizable=0;points=[];autosize=1;strokeColor=none;fillColor=none;fontSize=18;" vertex="1" parent="Wcygocvn48Qtb0r2ZFJX-2">
          <mxGeometry x="1020" y="378" width="70" height="40" as="geometry" />
        </mxCell>
        <mxCell id="Wcygocvn48Qtb0r2ZFJX-33" value="&lt;span style=&quot;font-size: 14px;&quot;&gt;Lambda&lt;/span&gt;" style="text;html=1;align=center;verticalAlign=middle;resizable=0;points=[];autosize=1;strokeColor=none;fillColor=none;fontSize=18;" vertex="1" parent="Wcygocvn48Qtb0r2ZFJX-2">
          <mxGeometry x="1020" y="210" width="70" height="40" as="geometry" />
        </mxCell>
        <mxCell id="Wcygocvn48Qtb0r2ZFJX-34" value="Atualização de Tickers" style="text;html=1;align=center;verticalAlign=middle;resizable=0;points=[];autosize=1;strokeColor=none;fillColor=none;" vertex="1" parent="Wcygocvn48Qtb0r2ZFJX-2">
          <mxGeometry x="614" y="592" width="140" height="30" as="geometry" />
        </mxCell>
        <mxCell id="Wcygocvn48Qtb0r2ZFJX-35" value="&lt;font style=&quot;font-size: 12px;&quot;&gt;Reserva de Mesas&lt;/font&gt;" style="text;html=1;align=center;verticalAlign=middle;resizable=0;points=[];autosize=1;strokeColor=none;fillColor=none;" vertex="1" parent="Wcygocvn48Qtb0r2ZFJX-2">
          <mxGeometry x="770" y="592" width="120" height="30" as="geometry" />
        </mxCell>
        <mxCell id="Wcygocvn48Qtb0r2ZFJX-37" value="&lt;font style=&quot;font-size: 12px;&quot;&gt;Recalcular Preços&lt;/font&gt;" style="text;html=1;align=center;verticalAlign=middle;resizable=0;points=[];autosize=1;strokeColor=none;fillColor=none;" vertex="1" parent="Wcygocvn48Qtb0r2ZFJX-2">
          <mxGeometry x="995" y="102" width="120" height="30" as="geometry" />
        </mxCell>
        <mxCell id="Wcygocvn48Qtb0r2ZFJX-38" value="&lt;font style=&quot;font-size: 12px;&quot;&gt;Gerenciamento de Dívidas&lt;/font&gt;" style="text;html=1;align=center;verticalAlign=middle;resizable=0;points=[];autosize=1;strokeColor=none;fillColor=none;" vertex="1" parent="Wcygocvn48Qtb0r2ZFJX-2">
          <mxGeometry x="970" y="270" width="170" height="30" as="geometry" />
        </mxCell>
        <mxCell id="Wcygocvn48Qtb0r2ZFJX-39" value="Pedidos e Pagamentos" style="text;html=1;align=center;verticalAlign=middle;resizable=0;points=[];autosize=1;strokeColor=none;fillColor=none;" vertex="1" parent="Wcygocvn48Qtb0r2ZFJX-2">
          <mxGeometry x="978" y="592" width="150" height="30" as="geometry" />
        </mxCell>
        <mxCell id="Wcygocvn48Qtb0r2ZFJX-40" value="Restrição de Horário" style="text;html=1;align=center;verticalAlign=middle;resizable=0;points=[];autosize=1;strokeColor=none;fillColor=none;" vertex="1" parent="Wcygocvn48Qtb0r2ZFJX-2">
          <mxGeometry x="1114" y="592" width="130" height="30" as="geometry" />
        </mxCell>
        <mxCell id="Wcygocvn48Qtb0r2ZFJX-44" value="" style="edgeStyle=orthogonalEdgeStyle;html=1;endArrow=none;elbow=vertical;startArrow=block;startFill=1;strokeColor=#545B64;rounded=0;strokeWidth=3;exitX=0.5;exitY=0;exitDx=0;exitDy=0;exitPerimeter=0;entryX=0.504;entryY=1.025;entryDx=0;entryDy=0;entryPerimeter=0;" edge="1" parent="Wcygocvn48Qtb0r2ZFJX-2" source="Wcygocvn48Qtb0r2ZFJX-6" target="Wcygocvn48Qtb0r2ZFJX-11">
          <mxGeometry width="100" relative="1" as="geometry">
            <mxPoint x="463" y="681" as="sourcePoint" />
            <mxPoint x="223" y="582" as="targetPoint" />
          </mxGeometry>
        </mxCell>
        <mxCell id="Wcygocvn48Qtb0r2ZFJX-11" value="&lt;span style=&quot;font-size: 14px;&quot;&gt;CloudFront&lt;/span&gt;" style="text;html=1;align=center;verticalAlign=middle;resizable=0;points=[];autosize=1;strokeColor=none;fillColor=none;fontSize=18;" vertex="1" parent="Wcygocvn48Qtb0r2ZFJX-2">
          <mxGeometry x="178" y="535" width="90" height="40" as="geometry" />
        </mxCell>
        <mxCell id="Wcygocvn48Qtb0r2ZFJX-45" value="" style="edgeStyle=orthogonalEdgeStyle;html=1;endArrow=none;elbow=vertical;startArrow=block;startFill=1;strokeColor=#545B64;rounded=0;strokeWidth=3;entryX=1;entryY=0.5;entryDx=0;entryDy=0;entryPerimeter=0;exitX=0;exitY=0.5;exitDx=0;exitDy=0;exitPerimeter=0;" edge="1" parent="Wcygocvn48Qtb0r2ZFJX-2" source="Wcygocvn48Qtb0r2ZFJX-18" target="Wcygocvn48Qtb0r2ZFJX-7">
          <mxGeometry width="100" relative="1" as="geometry">
            <mxPoint x="262" y="546.5" as="sourcePoint" />
            <mxPoint x="556" y="545.5" as="targetPoint" />
            <Array as="points">
              <mxPoint x="450" y="496" />
              <mxPoint x="450" y="496" />
            </Array>
          </mxGeometry>
        </mxCell>
        <mxCell id="Wcygocvn48Qtb0r2ZFJX-46" value="" style="sketch=0;points=[[0,0,0],[0.25,0,0],[0.5,0,0],[0.75,0,0],[1,0,0],[0,1,0],[0.25,1,0],[0.5,1,0],[0.75,1,0],[1,1,0],[0,0.25,0],[0,0.5,0],[0,0.75,0],[1,0.25,0],[1,0.5,0],[1,0.75,0]];outlineConnect=0;fontColor=#232F3E;fillColor=#E7157B;strokeColor=#ffffff;dashed=0;verticalLabelPosition=bottom;verticalAlign=top;align=center;html=1;fontSize=12;fontStyle=0;aspect=fixed;shape=mxgraph.aws4.resourceIcon;resIcon=mxgraph.aws4.eventbridge;rounded=1;arcSize=5;fontFamily=Helvetica;" vertex="1" parent="Wcygocvn48Qtb0r2ZFJX-2">
          <mxGeometry x="1150" y="224" width="78" height="78" as="geometry" />
        </mxCell>
        <mxCell id="Wcygocvn48Qtb0r2ZFJX-47" value="" style="edgeStyle=orthogonalEdgeStyle;html=1;endArrow=none;elbow=vertical;startArrow=block;startFill=1;strokeColor=#545B64;rounded=0;strokeWidth=3;entryX=1;entryY=0.5;entryDx=0;entryDy=0;entryPerimeter=0;exitX=0.482;exitY=0;exitDx=0;exitDy=0;exitPerimeter=0;" edge="1" parent="Wcygocvn48Qtb0r2ZFJX-2" source="Wcygocvn48Qtb0r2ZFJX-34">
          <mxGeometry width="100" relative="1" as="geometry">
            <mxPoint x="798" y="499.38" as="sourcePoint" />
            <mxPoint x="570" y="499.38" as="targetPoint" />
            <Array as="points">
              <mxPoint x="682" y="552" />
              <mxPoint x="600" y="552" />
              <mxPoint x="600" y="499" />
            </Array>
          </mxGeometry>
        </mxCell>
        <mxCell id="Wcygocvn48Qtb0r2ZFJX-48" value="" style="edgeStyle=orthogonalEdgeStyle;html=1;endArrow=none;elbow=vertical;startArrow=block;startFill=1;strokeColor=#545B64;rounded=0;strokeWidth=3;entryX=1;entryY=0.5;entryDx=0;entryDy=0;entryPerimeter=0;exitX=0.514;exitY=0.089;exitDx=0;exitDy=0;exitPerimeter=0;" edge="1" parent="Wcygocvn48Qtb0r2ZFJX-2" source="Wcygocvn48Qtb0r2ZFJX-35">
          <mxGeometry width="100" relative="1" as="geometry">
            <mxPoint x="680" y="592" as="sourcePoint" />
            <mxPoint x="568" y="499.38" as="targetPoint" />
            <Array as="points">
              <mxPoint x="832" y="590" />
              <mxPoint x="832" y="552" />
              <mxPoint x="598" y="552" />
              <mxPoint x="598" y="499" />
            </Array>
          </mxGeometry>
        </mxCell>
        <mxCell id="Wcygocvn48Qtb0r2ZFJX-50" value="" style="edgeStyle=orthogonalEdgeStyle;html=1;endArrow=none;elbow=vertical;startArrow=block;startFill=1;strokeColor=#545B64;rounded=0;strokeWidth=3;entryX=1;entryY=0.5;entryDx=0;entryDy=0;entryPerimeter=0;exitX=0;exitY=0.5;exitDx=0;exitDy=0;exitPerimeter=0;" edge="1" parent="Wcygocvn48Qtb0r2ZFJX-2" source="Wcygocvn48Qtb0r2ZFJX-62">
          <mxGeometry width="100" relative="1" as="geometry">
            <mxPoint x="928" y="591.15" as="sourcePoint" />
            <mxPoint x="568" y="500.8399999999999" as="targetPoint" />
            <Array as="points">
              <mxPoint x="600" y="471" />
              <mxPoint x="600" y="501" />
            </Array>
          </mxGeometry>
        </mxCell>
        <mxCell id="Wcygocvn48Qtb0r2ZFJX-51" value="" style="edgeStyle=orthogonalEdgeStyle;html=1;endArrow=none;elbow=vertical;startArrow=block;startFill=1;strokeColor=#545B64;rounded=0;strokeWidth=3;entryX=0.542;entryY=1.05;entryDx=0;entryDy=0;entryPerimeter=0;exitX=0.477;exitY=-0.004;exitDx=0;exitDy=0;exitPerimeter=0;" edge="1" parent="Wcygocvn48Qtb0r2ZFJX-2" source="Wcygocvn48Qtb0r2ZFJX-40" target="Wcygocvn48Qtb0r2ZFJX-66">
          <mxGeometry width="100" relative="1" as="geometry">
            <mxPoint x="1051" y="590.61" as="sourcePoint" />
            <mxPoint x="568" y="501.44999999999993" as="targetPoint" />
            <Array as="points">
              <mxPoint x="1176" y="562" />
              <mxPoint x="1110" y="562" />
            </Array>
          </mxGeometry>
        </mxCell>
        <mxCell id="Wcygocvn48Qtb0r2ZFJX-56" value="" style="whiteSpace=wrap;html=1;fillColor=#e8e8e8;strokeColor=none;rounded=1;arcSize=5;" vertex="1" parent="Wcygocvn48Qtb0r2ZFJX-2">
          <mxGeometry x="440" y="210" width="420" height="130" as="geometry" />
        </mxCell>
        <mxCell id="Wcygocvn48Qtb0r2ZFJX-55" value="" style="sketch=0;points=[[0,0,0],[0.25,0,0],[0.5,0,0],[0.75,0,0],[1,0,0],[0,1,0],[0.25,1,0],[0.5,1,0],[0.75,1,0],[1,1,0],[0,0.25,0],[0,0.5,0],[0,0.75,0],[1,0.25,0],[1,0.5,0],[1,0.75,0]];outlineConnect=0;fontColor=#232F3E;fillColor=#DD344C;strokeColor=#ffffff;dashed=0;verticalLabelPosition=bottom;verticalAlign=top;align=center;html=1;fontSize=12;fontStyle=0;aspect=fixed;shape=mxgraph.aws4.resourceIcon;resIcon=mxgraph.aws4.cognito;rounded=1;arcSize=5;fontFamily=Helvetica;" vertex="1" parent="Wcygocvn48Qtb0r2ZFJX-2">
          <mxGeometry x="491" y="224" width="78" height="78" as="geometry" />
        </mxCell>
        <mxCell id="Wcygocvn48Qtb0r2ZFJX-57" value="&lt;span style=&quot;font-size: 14px;&quot;&gt;Cognito&lt;/span&gt;" style="text;html=1;align=center;verticalAlign=middle;resizable=0;points=[];autosize=1;strokeColor=none;fillColor=none;fontSize=18;" vertex="1" parent="Wcygocvn48Qtb0r2ZFJX-2">
          <mxGeometry x="495" y="296" width="70" height="40" as="geometry" />
        </mxCell>
        <mxCell id="Wcygocvn48Qtb0r2ZFJX-58" value="&lt;b&gt;Autenticação&lt;/b&gt;" style="text;html=1;align=center;verticalAlign=middle;resizable=0;points=[];autosize=1;strokeColor=none;fillColor=none;fontSize=18;" vertex="1" parent="Wcygocvn48Qtb0r2ZFJX-2">
          <mxGeometry x="652" y="231" width="140" height="40" as="geometry" />
        </mxCell>
        <mxCell id="Wcygocvn48Qtb0r2ZFJX-59" value="" style="edgeStyle=orthogonalEdgeStyle;html=1;endArrow=none;elbow=vertical;startArrow=block;startFill=1;strokeColor=#545B64;rounded=0;strokeWidth=3;entryX=0.5;entryY=0;entryDx=0;entryDy=0;entryPerimeter=0;" edge="1" parent="Wcygocvn48Qtb0r2ZFJX-2" source="Wcygocvn48Qtb0r2ZFJX-57" target="Wcygocvn48Qtb0r2ZFJX-18">
          <mxGeometry width="100" relative="1" as="geometry">
            <mxPoint x="530" y="342" as="sourcePoint" />
            <mxPoint x="500" y="382" as="targetPoint" />
            <Array as="points" />
          </mxGeometry>
        </mxCell>
        <mxCell id="Wcygocvn48Qtb0r2ZFJX-62" value="" style="sketch=0;points=[[0,0,0],[0.25,0,0],[0.5,0,0],[0.75,0,0],[1,0,0],[0,1,0],[0.25,1,0],[0.5,1,0],[0.75,1,0],[1,1,0],[0,0.25,0],[0,0.5,0],[0,0.75,0],[1,0.25,0],[1,0.5,0],[1,0.75,0]];outlineConnect=0;fontColor=#232F3E;fillColor=#E7157B;strokeColor=#ffffff;dashed=0;verticalLabelPosition=bottom;verticalAlign=top;align=center;html=1;fontSize=12;fontStyle=0;aspect=fixed;shape=mxgraph.aws4.resourceIcon;resIcon=mxgraph.aws4.step_functions;rounded=1;arcSize=5;fontFamily=Helvetica;" vertex="1" parent="Wcygocvn48Qtb0r2ZFJX-2">
          <mxGeometry x="1066" y="432" width="78" height="78" as="geometry" />
        </mxCell>
        <mxCell id="Wcygocvn48Qtb0r2ZFJX-63" value="&lt;span style=&quot;font-size: 14px;&quot;&gt;EventBridge&lt;/span&gt;" style="text;html=1;align=center;verticalAlign=middle;resizable=0;points=[];autosize=1;strokeColor=none;fillColor=none;fontSize=18;" vertex="1" parent="Wcygocvn48Qtb0r2ZFJX-2">
          <mxGeometry x="1139" y="302" width="100" height="40" as="geometry" />
        </mxCell>
        <mxCell id="Wcygocvn48Qtb0r2ZFJX-64" value="" style="edgeStyle=orthogonalEdgeStyle;html=1;endArrow=none;elbow=vertical;startArrow=block;startFill=1;strokeColor=#545B64;rounded=0;strokeWidth=3;entryX=0.5;entryY=0;entryDx=0;entryDy=0;entryPerimeter=0;exitX=1;exitY=0.5;exitDx=0;exitDy=0;exitPerimeter=0;" edge="1" parent="Wcygocvn48Qtb0r2ZFJX-2" source="Wcygocvn48Qtb0r2ZFJX-26" target="Wcygocvn48Qtb0r2ZFJX-46">
          <mxGeometry width="100" relative="1" as="geometry">
            <mxPoint x="1189.26" y="92" as="sourcePoint" />
            <mxPoint x="1188.26" y="213" as="targetPoint" />
            <Array as="points" />
          </mxGeometry>
        </mxCell>
        <mxCell id="Wcygocvn48Qtb0r2ZFJX-65" value="" style="edgeStyle=orthogonalEdgeStyle;html=1;endArrow=none;elbow=vertical;startArrow=block;startFill=1;strokeColor=#545B64;rounded=0;strokeWidth=3;entryX=0.467;entryY=1.004;entryDx=0;entryDy=0;entryPerimeter=0;" edge="1" parent="Wcygocvn48Qtb0r2ZFJX-2" source="Wcygocvn48Qtb0r2ZFJX-25" target="Wcygocvn48Qtb0r2ZFJX-63">
          <mxGeometry width="100" relative="1" as="geometry">
            <mxPoint x="1094" y="342" as="sourcePoint" />
            <mxPoint x="1189" y="395" as="targetPoint" />
            <Array as="points">
              <mxPoint x="1186" y="352" />
            </Array>
          </mxGeometry>
        </mxCell>
        <mxCell id="Wcygocvn48Qtb0r2ZFJX-66" value="&lt;span style=&quot;font-size: 14px;&quot;&gt;Step Functions&lt;/span&gt;" style="text;html=1;align=center;verticalAlign=middle;resizable=0;points=[];autosize=1;strokeColor=none;fillColor=none;fontSize=18;" vertex="1" parent="Wcygocvn48Qtb0r2ZFJX-2">
          <mxGeometry x="1045" y="510" width="120" height="40" as="geometry" />
        </mxCell>
        <mxCell id="Wcygocvn48Qtb0r2ZFJX-67" value="" style="edgeStyle=orthogonalEdgeStyle;html=1;endArrow=none;elbow=vertical;startArrow=block;startFill=1;strokeColor=#545B64;rounded=0;strokeWidth=3;entryX=0.542;entryY=1.05;entryDx=0;entryDy=0;entryPerimeter=0;exitX=0.469;exitY=-0.016;exitDx=0;exitDy=0;exitPerimeter=0;" edge="1" parent="Wcygocvn48Qtb0r2ZFJX-2" source="Wcygocvn48Qtb0r2ZFJX-39">
          <mxGeometry width="100" relative="1" as="geometry">
            <mxPoint x="1176" y="592" as="sourcePoint" />
            <mxPoint x="1110" y="552" as="targetPoint" />
            <Array as="points">
              <mxPoint x="1049" y="582" />
              <mxPoint x="1050" y="582" />
              <mxPoint x="1050" y="562" />
              <mxPoint x="1110" y="562" />
            </Array>
          </mxGeometry>
        </mxCell>
        <mxCell id="Wcygocvn48Qtb0r2ZFJX-68" value="" style="edgeStyle=orthogonalEdgeStyle;html=1;endArrow=none;elbow=vertical;startArrow=block;startFill=1;strokeColor=#545B64;rounded=0;strokeWidth=3;entryX=1;entryY=0.5;entryDx=0;entryDy=0;entryPerimeter=0;" edge="1" parent="Wcygocvn48Qtb0r2ZFJX-2" source="Wcygocvn48Qtb0r2ZFJX-25" target="Wcygocvn48Qtb0r2ZFJX-62">
          <mxGeometry width="100" relative="1" as="geometry">
            <mxPoint x="1094" y="362" as="sourcePoint" />
            <mxPoint x="1186" y="342" as="targetPoint" />
            <Array as="points">
              <mxPoint x="1186" y="372" />
              <mxPoint x="1186" y="471" />
            </Array>
          </mxGeometry>
        </mxCell>
        <mxCell id="Wcygocvn48Qtb0r2ZFJX-70" value="" style="whiteSpace=wrap;html=1;fillColor=#e8e8e8;strokeColor=none;rounded=1;arcSize=5;" vertex="1" parent="Wcygocvn48Qtb0r2ZFJX-2">
          <mxGeometry x="440" y="30" width="420" height="160" as="geometry" />
        </mxCell>
        <mxCell id="Wcygocvn48Qtb0r2ZFJX-72" value="&lt;b&gt;Banco de Dados&lt;/b&gt;" style="text;html=1;align=center;verticalAlign=middle;resizable=0;points=[];autosize=1;strokeColor=none;fillColor=none;fontSize=18;" vertex="1" parent="Wcygocvn48Qtb0r2ZFJX-2">
          <mxGeometry x="645" y="52" width="160" height="40" as="geometry" />
        </mxCell>
        <mxCell id="Wcygocvn48Qtb0r2ZFJX-73" value="" style="sketch=0;points=[[0,0,0],[0.25,0,0],[0.5,0,0],[0.75,0,0],[1,0,0],[0,1,0],[0.25,1,0],[0.5,1,0],[0.75,1,0],[1,1,0],[0,0.25,0],[0,0.5,0],[0,0.75,0],[1,0.25,0],[1,0.5,0],[1,0.75,0]];outlineConnect=0;fontColor=#232F3E;fillColor=#C925D1;strokeColor=#ffffff;dashed=0;verticalLabelPosition=bottom;verticalAlign=top;align=center;html=1;fontSize=12;fontStyle=0;aspect=fixed;shape=mxgraph.aws4.resourceIcon;resIcon=mxgraph.aws4.dynamodb;rounded=1;arcSize=5;fontFamily=Helvetica;" vertex="1" parent="Wcygocvn48Qtb0r2ZFJX-2">
          <mxGeometry x="491" y="62" width="78" height="78" as="geometry" />
        </mxCell>
        <mxCell id="Wcygocvn48Qtb0r2ZFJX-74" value="&lt;span style=&quot;font-size: 14px;&quot;&gt;DynamoDB&lt;/span&gt;" style="text;html=1;align=center;verticalAlign=middle;resizable=0;points=[];autosize=1;strokeColor=none;fillColor=none;fontSize=18;" vertex="1" parent="Wcygocvn48Qtb0r2ZFJX-2">
          <mxGeometry x="479" y="140" width="100" height="40" as="geometry" />
        </mxCell>
        <mxCell id="Wcygocvn48Qtb0r2ZFJX-75" value="" style="edgeStyle=orthogonalEdgeStyle;html=1;endArrow=none;elbow=vertical;startArrow=block;startFill=1;strokeColor=#545B64;rounded=0;strokeWidth=3;entryX=0;entryY=0.5;entryDx=0;entryDy=0;entryPerimeter=0;exitX=1.017;exitY=0.682;exitDx=0;exitDy=0;exitPerimeter=0;" edge="1" parent="Wcygocvn48Qtb0r2ZFJX-2" source="Wcygocvn48Qtb0r2ZFJX-73" target="Wcygocvn48Qtb0r2ZFJX-23">
          <mxGeometry width="100" relative="1" as="geometry">
            <mxPoint x="938" y="402" as="sourcePoint" />
            <mxPoint x="710" y="402" as="targetPoint" />
            <Array as="points">
              <mxPoint x="950" y="115" />
              <mxPoint x="950" y="661" />
            </Array>
          </mxGeometry>
        </mxCell>
        <mxCell id="Wcygocvn48Qtb0r2ZFJX-76" value="" style="edgeStyle=orthogonalEdgeStyle;html=1;endArrow=none;elbow=vertical;startArrow=block;startFill=1;strokeColor=#545B64;rounded=0;strokeWidth=3;entryX=1;entryY=0.5;entryDx=0;entryDy=0;entryPerimeter=0;exitX=1.017;exitY=0.682;exitDx=0;exitDy=0;exitPerimeter=0;" edge="1" parent="Wcygocvn48Qtb0r2ZFJX-2" target="Wcygocvn48Qtb0r2ZFJX-21">
          <mxGeometry width="100" relative="1" as="geometry">
            <mxPoint x="570" y="115" as="sourcePoint" />
            <mxPoint x="1014" y="661" as="targetPoint" />
            <Array as="points">
              <mxPoint x="950" y="115" />
              <mxPoint x="950" y="661" />
            </Array>
          </mxGeometry>
        </mxCell>
        <mxCell id="Wcygocvn48Qtb0r2ZFJX-77" value="" style="edgeStyle=orthogonalEdgeStyle;html=1;endArrow=none;elbow=vertical;startArrow=block;startFill=1;strokeColor=#545B64;rounded=0;strokeWidth=3;entryX=0;entryY=0.5;entryDx=0;entryDy=0;entryPerimeter=0;exitX=1.017;exitY=0.682;exitDx=0;exitDy=0;exitPerimeter=0;" edge="1" parent="Wcygocvn48Qtb0r2ZFJX-2" target="Wcygocvn48Qtb0r2ZFJX-25">
          <mxGeometry width="100" relative="1" as="geometry">
            <mxPoint x="570" y="115" as="sourcePoint" />
            <mxPoint x="869" y="661" as="targetPoint" />
            <Array as="points">
              <mxPoint x="950" y="115" />
              <mxPoint x="950" y="339" />
            </Array>
          </mxGeometry>
        </mxCell>
        <mxCell id="Wcygocvn48Qtb0r2ZFJX-78" value="" style="edgeStyle=orthogonalEdgeStyle;html=1;endArrow=none;elbow=vertical;startArrow=block;startFill=1;strokeColor=#545B64;rounded=0;strokeWidth=3;entryX=0;entryY=0.5;entryDx=0;entryDy=0;entryPerimeter=0;exitX=1.017;exitY=0.682;exitDx=0;exitDy=0;exitPerimeter=0;" edge="1" parent="Wcygocvn48Qtb0r2ZFJX-2" target="Wcygocvn48Qtb0r2ZFJX-26">
          <mxGeometry width="100" relative="1" as="geometry">
            <mxPoint x="570" y="114.97" as="sourcePoint" />
            <mxPoint x="1016" y="338.97" as="targetPoint" />
            <Array as="points">
              <mxPoint x="950" y="115" />
              <mxPoint x="950" y="171" />
            </Array>
          </mxGeometry>
        </mxCell>
        <mxCell id="Wcygocvn48Qtb0r2ZFJX-80" value="" style="whiteSpace=wrap;html=1;fillColor=#e8e8e8;strokeColor=none;rounded=1;arcSize=5;" vertex="1" parent="Wcygocvn48Qtb0r2ZFJX-2">
          <mxGeometry x="40" y="30" width="370" height="310" as="geometry" />
        </mxCell>
        <mxCell id="Wcygocvn48Qtb0r2ZFJX-81" value="&lt;b&gt;Observabilidade&lt;/b&gt;" style="text;html=1;align=center;verticalAlign=middle;resizable=0;points=[];autosize=1;strokeColor=none;fillColor=none;fontSize=18;" vertex="1" parent="Wcygocvn48Qtb0r2ZFJX-2">
          <mxGeometry x="140" y="42" width="160" height="40" as="geometry" />
        </mxCell>
        <mxCell id="Wcygocvn48Qtb0r2ZFJX-82" value="" style="sketch=0;points=[[0,0,0],[0.25,0,0],[0.5,0,0],[0.75,0,0],[1,0,0],[0,1,0],[0.25,1,0],[0.5,1,0],[0.75,1,0],[1,1,0],[0,0.25,0],[0,0.5,0],[0,0.75,0],[1,0.25,0],[1,0.5,0],[1,0.75,0]];outlineConnect=0;fontColor=#232F3E;fillColor=#7AA116;strokeColor=#ffffff;dashed=0;verticalLabelPosition=bottom;verticalAlign=top;align=center;html=1;fontSize=12;fontStyle=0;aspect=fixed;shape=mxgraph.aws4.resourceIcon;resIcon=mxgraph.aws4.cost_explorer;rounded=1;arcSize=5;fontFamily=Helvetica;" vertex="1" parent="Wcygocvn48Qtb0r2ZFJX-2">
          <mxGeometry x="61" y="142" width="78" height="78" as="geometry" />
        </mxCell>
        <mxCell id="Wcygocvn48Qtb0r2ZFJX-83" value="" style="sketch=0;points=[[0,0,0],[0.25,0,0],[0.5,0,0],[0.75,0,0],[1,0,0],[0,1,0],[0.25,1,0],[0.5,1,0],[0.75,1,0],[1,1,0],[0,0.25,0],[0,0.5,0],[0,0.75,0],[1,0.25,0],[1,0.5,0],[1,0.75,0]];outlineConnect=0;fontColor=#232F3E;fillColor=#7AA116;strokeColor=#ffffff;dashed=0;verticalLabelPosition=bottom;verticalAlign=top;align=center;html=1;fontSize=12;fontStyle=0;aspect=fixed;shape=mxgraph.aws4.resourceIcon;resIcon=mxgraph.aws4.budgets_2;rounded=1;arcSize=5;fontFamily=Helvetica;" vertex="1" parent="Wcygocvn48Qtb0r2ZFJX-2">
          <mxGeometry x="186" y="142" width="78" height="78" as="geometry" />
        </mxCell>
        <mxCell id="Wcygocvn48Qtb0r2ZFJX-84" value="" style="sketch=0;points=[[0,0,0],[0.25,0,0],[0.5,0,0],[0.75,0,0],[1,0,0],[0,1,0],[0.25,1,0],[0.5,1,0],[0.75,1,0],[1,1,0],[0,0.25,0],[0,0.5,0],[0,0.75,0],[1,0.25,0],[1,0.5,0],[1,0.75,0]];points=[[0,0,0],[0.25,0,0],[0.5,0,0],[0.75,0,0],[1,0,0],[0,1,0],[0.25,1,0],[0.5,1,0],[0.75,1,0],[1,1,0],[0,0.25,0],[0,0.5,0],[0,0.75,0],[1,0.25,0],[1,0.5,0],[1,0.75,0]];outlineConnect=0;fontColor=#232F3E;fillColor=#E7157B;strokeColor=#ffffff;dashed=0;verticalLabelPosition=bottom;verticalAlign=top;align=center;html=1;fontSize=12;fontStyle=0;aspect=fixed;shape=mxgraph.aws4.resourceIcon;resIcon=mxgraph.aws4.cloudwatch_2;rounded=1;arcSize=5;fontFamily=Helvetica;" vertex="1" parent="Wcygocvn48Qtb0r2ZFJX-2">
          <mxGeometry x="309" y="142" width="78" height="78" as="geometry" />
        </mxCell>
        <mxCell id="Wcygocvn48Qtb0r2ZFJX-85" value="&lt;span style=&quot;font-size: 14px;&quot;&gt;CloudWatch&lt;/span&gt;" style="text;html=1;align=center;verticalAlign=middle;resizable=0;points=[];autosize=1;strokeColor=none;fillColor=none;fontSize=18;" vertex="1" parent="Wcygocvn48Qtb0r2ZFJX-2">
          <mxGeometry x="298" y="220" width="100" height="40" as="geometry" />
        </mxCell>
        <mxCell id="Wcygocvn48Qtb0r2ZFJX-86" value="&lt;span style=&quot;font-size: 14px;&quot;&gt;Cost Explorer&lt;/span&gt;" style="text;html=1;align=center;verticalAlign=middle;resizable=0;points=[];autosize=1;strokeColor=none;fillColor=none;fontSize=18;" vertex="1" parent="Wcygocvn48Qtb0r2ZFJX-2">
          <mxGeometry x="45" y="220" width="110" height="40" as="geometry" />
        </mxCell>
        <mxCell id="Wcygocvn48Qtb0r2ZFJX-87" value="&lt;span style=&quot;font-size: 14px;&quot;&gt;Budgets&lt;/span&gt;" style="text;html=1;align=center;verticalAlign=middle;resizable=0;points=[];autosize=1;strokeColor=none;fillColor=none;fontSize=18;" vertex="1" parent="Wcygocvn48Qtb0r2ZFJX-2">
          <mxGeometry x="190" y="220" width="70" height="40" as="geometry" />
        </mxCell>
        <mxCell id="Wcygocvn48Qtb0r2ZFJX-3" value="&lt;font style=&quot;font-size: 14px;&quot;&gt;us-east-1&lt;/font&gt;" style="text;html=1;align=center;verticalAlign=middle;resizable=0;points=[];autosize=1;strokeColor=none;fillColor=none;" vertex="1" parent="Wcygocvn48Qtb0r2ZFJX-1">
          <mxGeometry x="29" y="15" width="80" height="30" as="geometry" />
        </mxCell>
        <mxCell id="Wcygocvn48Qtb0r2ZFJX-4" value="devices" style="sketch=0;outlineConnect=0;gradientColor=none;fontColor=#545B64;strokeColor=none;fillColor=#879196;dashed=0;verticalLabelPosition=bottom;verticalAlign=top;align=center;html=1;fontSize=12;fontStyle=0;aspect=fixed;shape=mxgraph.aws4.illustration_devices;pointerEvents=1" vertex="1" parent="1">
          <mxGeometry x="30" y="529" width="100" height="73" as="geometry" />
        </mxCell>
        <mxCell id="Wcygocvn48Qtb0r2ZFJX-10" value="" style="edgeStyle=orthogonalEdgeStyle;html=1;endArrow=none;elbow=vertical;startArrow=block;startFill=1;strokeColor=#545B64;rounded=0;strokeWidth=3;entryX=0;entryY=0.5;entryDx=0;entryDy=0;entryPerimeter=0;" edge="1" parent="1" source="Wcygocvn48Qtb0r2ZFJX-4" target="Wcygocvn48Qtb0r2ZFJX-7">
          <mxGeometry width="100" relative="1" as="geometry">
            <mxPoint x="270" y="565.58" as="sourcePoint" />
            <mxPoint x="340" y="569" as="targetPoint" />
            <Array as="points">
              <mxPoint x="235" y="565" />
              <mxPoint x="370" y="565" />
            </Array>
          </mxGeometry>
        </mxCell>
        <mxCell id="Wcygocvn48Qtb0r2ZFJX-79" value="" style="edgeStyle=orthogonalEdgeStyle;html=1;endArrow=none;elbow=vertical;startArrow=block;startFill=1;strokeColor=#545B64;rounded=0;strokeWidth=3;entryX=0;entryY=0.5;entryDx=0;entryDy=0;entryPerimeter=0;exitX=1.017;exitY=0.682;exitDx=0;exitDy=0;exitPerimeter=0;" edge="1" parent="1" target="Wcygocvn48Qtb0r2ZFJX-20">
          <mxGeometry width="100" relative="1" as="geometry">
            <mxPoint x="810" y="183" as="sourcePoint" />
            <mxPoint x="1109" y="729" as="targetPoint" />
            <Array as="points">
              <mxPoint x="1190" y="183" />
              <mxPoint x="1190" y="570" />
              <mxPoint x="850" y="570" />
              <mxPoint x="850" y="729" />
            </Array>
          </mxGeometry>
        </mxCell>
      </root>
    </mxGraphModel>
  </diagram>
</mxfile>
